<svg xmlns="http://www.w3.org/2000/svg" viewBox="0 0 512 512">
  <defs>
    <linearGradient id="c2-green" x1="0" y1="0" x2="1" y2="1">
      <stop offset="0%" stop-color="#34d399"/>
      <stop offset="100%" stop-color="#10b981"/>
    </linearGradient>
    <linearGradient id="c2-indigo" x1="0" y1="0" x2="1" y2="0">
      <stop offset="0%" stop-color="#818cf8"/>
      <stop offset="100%" stop-color="#6366f1"/>
    </linearGradient>
    <linearGradient id="c2-bg" x1="0" y1="0" x2="0" y2="1">
      <stop offset="0%" stop-color="#1e1b4b"/>
      <stop offset="100%" stop-color="#0f172a"/>
    </linearGradient>
  </defs>
  <!-- Background circle -->
  <circle cx="256" cy="256" r="240" fill="url(#c2-bg)" stroke="url(#c2-indigo)" stroke-width="10"/>
  <!-- Globe grid (inside circle) -->
  <circle cx="256" cy="220" r="80" fill="none" stroke="#6366f1" stroke-width="1.5" opacity="0.2"/>
  <ellipse cx="256" cy="220" rx="50" ry="80" fill="none" stroke="#6366f1" stroke-width="1" opacity="0.15"/>
  <ellipse cx="256" cy="220" rx="25" ry="80" fill="none" stroke="#6366f1" stroke-width="1" opacity="0.1"/>
  <line x1="176" y1="200" x2="336" y2="200" stroke="#6366f1" stroke-width="1" opacity="0.12"/>
  <line x1="176" y1="240" x2="336" y2="240" stroke="#6366f1" stroke-width="1" opacity="0.12"/>
  <!-- Left hand (chain link shape) -->
  <path d="M 200 170 C 160 170 140 200 140 230 C 140 270 170 290 200 290 L 220 280" fill="none" stroke="url(#c2-green)" stroke-width="8" stroke-linecap="round"/>
  <!-- Right hand (chain link shape) -->
  <path d="M 312 170 C 352 170 372 200 372 230 C 372 270 342 290 312 290 L 292 280" fill="none" stroke="url(#c2-green)" stroke-width="8" stroke-linecap="round"/>
  <!-- Chain links connecting hands (top) -->
  <path d="M 200 170 C 220 150 240 145 256 145 C 272 145 292 150 312 170" fill="none" stroke="url(#c2-indigo)" stroke-width="6" stroke-linecap="round"/>
  <!-- Chain links connecting hands (bottom) -->
  <path d="M 220 280 C 235 295 245 300 256 300 C 267 300 277 295 292 280" fill="none" stroke="url(#c2-indigo)" stroke-width="6" stroke-linecap="round"/>
  <!-- Heart at clasp point (top) -->
  <path d="M 256 160 C 250 148 238 148 238 156 C 238 164 256 175 256 175 C 256 175 274 164 274 156 C 274 148 262 148 256 160 Z" fill="#f59e0b"/>
  <!-- Heart at clasp point (bottom) -->
  <path d="M 256 288 C 252 280 244 280 244 285 C 244 290 256 298 256 298 C 256 298 268 290 268 285 C 268 280 260 280 256 288 Z" fill="#f59e0b"/>
  <!-- POH text -->
  <text x="256" y="375" text-anchor="middle" font-family="system-ui, sans-serif" font-weight="800" font-size="60" fill="white" letter-spacing="8">POH</text>
  <!-- Tagline -->
  <text x="256" y="410" text-anchor="middle" font-family="system-ui, sans-serif" font-weight="400" font-size="16" fill="#34d399" letter-spacing="4" opacity="0.8">CHAIN OF HANDS</text>
</svg>
