<svg xmlns="http://www.w3.org/2000/svg" width="32" height="32" viewBox="0 0 32 32">
  <defs>
    <clipPath id="circle">
      <circle cx="16" cy="16" r="15"/>
    </clipPath>
  </defs>
  <!-- Background circle with outline -->
  <circle cx="16" cy="16" r="15.5" fill="#1a2744" stroke="#0d1a2d" stroke-width="1"/>
  <g clip-path="url(#circle)">
    <!-- Ocean -->
    <circle cx="16" cy="16" r="15" fill="#1e3a5f"/>
    <!-- Land masses (simplified continents) -->
    <ellipse cx="10" cy="9" rx="7" ry="5" fill="#2d7a6e" transform="rotate(-10 10 9)"/>
    <ellipse cx="22" cy="10" rx="5" ry="4" fill="#2d7a6e" transform="rotate(15 22 10)"/>
    <ellipse cx="16" cy="22" rx="8" ry="5" fill="#2d7a6e" transform="rotate(5 16 22)"/>
    <!-- Wave lines -->
    <path d="M0 16 Q4 14 8 16 T16 16 T24 16 T32 16" fill="none" stroke="#1a2744" stroke-width="0.8" opacity="0.5"/>
    <path d="M0 20 Q4 18 8 20 T16 20 T24 20 T32 20" fill="none" stroke="#1a2744" stroke-width="0.8" opacity="0.5"/>
    <!-- Left hand reaching right -->
    <g fill="#2d8a7a" stroke="#1a3a2d" stroke-width="0.4">
      <path d="M3 15 Q5 13 8 14 L12 15.5 Q13 15.8 13.5 15 Q13.8 14.5 13 14 L11 13 Q12 12.5 13 13.2 L14.5 14.5 Q15 15 14.5 15.5 L12 16.5 Q9 17.5 6 17 Q4 16.5 3 15Z"/>
    </g>
    <!-- Right hand reaching left -->
    <g fill="#2d8a7a" stroke="#1a3a2d" stroke-width="0.4">
      <path d="M29 17 Q27 15 24 16 L20 17 Q19 17.2 18.5 16.5 Q18.2 16 19 15.5 L21 14.5 Q20 14 19 14.8 L17.5 16 Q17 16.5 17.5 17 L20 18 Q23 19 26 18.5 Q28 18 29 17Z"/>
    </g>
  </g>
</svg>
